#tb 0: 1/1000
0,          0,          0,        0,    61152, efa2a2a76a0fe709a78e491346cfcf29
0,         33,         33,        0,    61152, 97de85e21b408878853fa870104707d7
0,         66,         66,        0,    61152, 419bd1157e156d3059190d6b561c57dd
0,        100,        100,        0,    61152, fbb6e01c524fc7c8007c6cfe2c64f467
0,        133,        133,        0,    61152, 7453994c2e9901fa23f295ec0b556f9c
0,        166,        166,        0,    61152, ba39dc984789fa2c4b833cd88013cc97
0,        200,        200,        0,    61152, cea5061cac1be18d5f9a9301a5460491
0,        233,        233,        0,    61152, 1c583018c425b1a91949e0c3eb0a4152
0,        266,        266,        0,    61152, b48be02280ac6f97731af69bcf18de25
0,        300,        300,        0,    61152, 6f8ab465214d8374c9ff77b939da333e
